<?xml version="1.0" encoding="UTF-8"?>
<svg width="130px" height="11px" viewBox="0 0 130 11" version="1.1" xmlns="http://www.w3.org/2000/svg" xmlns:xlink="http://www.w3.org/1999/xlink">
    <title>左右滑动感受多种氛围灯组合@3x</title>
    <defs>
        <path d="M127.45,741.66 L127.45,741.13 L124.08,741.13 L124.08,737.88 L126.62,737.88 L126.62,737.35 L121.39,737.35 C121.71667,736.61667 122,735.8 122.24,734.9 L127.42,734.9 L127.42,734.38 L122.36,734.38 C122.48,733.80667 122.57333,733.31 122.64,732.89 L122.1,732.83 C122.01333,733.41667 121.92,733.93334 121.82,734.38001 L118.75,734.38 L118.75,734.9 L121.69,734.9 C121.07,737.26 120.00667,739.07667 118.5,740.35 L118.77,740.85 C119.71,740.09667 120.5,739.10667 121.14,737.88 L123.53,737.88 L123.53,741.13 L120.14,741.13 L120.14,741.66 L127.45,741.66 Z M131.58,741.98999 L131.58,741.40999 L135.91,741.40999 L135.91,741.98999 L136.44,741.98999 L136.44,737.27 L131.34,737.27 C131.8,736.57 132.18667,735.77667 132.5,734.89 L137.42,734.89 L137.42,734.36 L132.67,734.36 C132.83,733.83333 132.95333,733.33666 133.04,732.86999 L132.49,732.80999 C132.39667,733.30332 132.27,733.81999 132.11,734.35999 L128.72,734.35999 L128.72,734.88999 L131.93,734.88999 C131.22333,736.79666 130.05333,738.28666 128.42,739.35999 L128.7,739.84999 C129.60667,739.28999 130.38667,738.57332 131.04,737.69999 L131.04,741.98999 L131.58,741.98999 Z M135.91,740.87999 L131.58,740.87999 L131.58,737.78999 L135.91,737.78999 L135.91,740.87999 Z M140.66,735.05 L141.03,734.68 C140.51667,734.12667 139.89,733.58333 139.15,733.05 L138.78,733.41 C139.59333,734.01 140.22,734.55667 140.66,735.05 Z M147.23,737.55 L147.23,735.96 L146.49,735.96 L146.49,733.24 L141.99,733.24 L141.99,735.96 L141.17,735.96 L141.17,737.54 L141.69,737.54 L141.69,736.44 L146.71,736.44 L146.71,737.55 L147.23,737.55 Z M145.97,735.96 L144.59,735.96 L144.59,734.63 L142.51,734.63 L142.51,733.72 L145.97,733.72 L145.97,735.96 Z M144.13,735.96 L142.51,735.96 L142.51,735.06 L144.13,735.06 L144.13,735.96 Z M140.36,737.40001 L140.73,737.03001 C140.27,736.51668 139.71,736.00668 139.05,735.50001 L138.68,735.85001 C139.37333,736.38334 139.93333,736.90001 140.36,737.40001 Z M142.61,741.98 L142.61,740.36 L145.84,740.36 L145.84,741.17 C145.84,741.39 145.69667,741.5 145.41,741.5 L144.48,741.47 L144.61,741.97 L145.58,741.97 C146.1,741.97 146.36,741.74 146.36,741.28 L146.36,737.24 L142.1,737.24 L142.1,741.98 L142.61,741.98 Z M145.84,738.57 L142.61,738.57 L142.61,737.71 L145.84,737.71 L145.84,738.57 Z M139.23,741.94001 C139.76333,740.88001 140.24333,739.74001 140.67,738.52001 L140.2,738.34001 C139.78,739.51334 139.29667,740.64334 138.75,741.73001 L139.23,741.94001 Z M145.84,739.92 L142.61,739.92 L142.61,739.01 L145.84,739.01 L145.84,739.92 Z M152.89999,742.00001 C154.29332,740.60001 155.00332,738.40001 155.02999,735.40001 L155.02999,735.26001 L156.69999,735.26001 C156.67999,738.22001 156.63666,739.99001 156.56999,740.57001 C156.48999,741.11668 156.22999,741.39001 155.78999,741.39001 C155.63666,741.39001 155.29333,741.38334 154.76,741.37001 L154.89,741.84001 C155.34333,741.86001 155.66,741.87001 155.84,741.87001 C156.59333,741.87001 157.01,741.49001 157.09,740.73001 C157.18333,739.94334 157.23,737.94667 157.23,734.74 L155.03,734.74 L155.03,732.88 L154.48999,732.88 L154.48999,734.74002 L153.16999,734.74002 L153.16999,735.26002 L154.48999,735.26002 L154.48999,735.40002 C154.46999,738.25335 153.79666,740.32668 152.46999,741.62001 L152.89999,742.00001 Z M152.49,734.13 L152.49,733.62 L148.93,733.62 L148.93,734.13 L152.49,734.13 Z M148.72999,740.92001 C149.99666,740.68668 151.15666,740.38335 152.20999,740.01002 L152.54999,740.80002 L153.03,740.56002 C152.58999,739.546689 152.12666,738.61002 151.63999,737.75002 L151.17999,737.97002 C151.41999,738.38335 151.69666,738.91335 152.00999,739.56002 C151.10999,739.90002 150.22666,740.146689 149.35999,740.30002 C149.69332,739.646689 150.08332,738.496689 150.53,736.85002 L152.87999,736.85002 L152.87999,736.31 L148.53,736.31 L148.53,736.85 L150,736.85 C149.46,738.77 149.03,739.94 148.71,740.36 C148.70333,740.36667 148.66666,740.38334 148.59999,740.41001 L148.72999,740.92001 Z M164.03,738.99001 C164.43667,738.74334 164.80667,738.44001 165.14,738.08001 C165.22,738.20001 165.28667,738.29001 165.34,738.35001 C165.71333,738.75668 166.09666,738.96001 166.48999,738.96001 C166.86999,738.96001 167.20332,738.44001 167.48999,737.40001 L167.04999,737.14001 C166.82999,738.01334 166.62666,738.45001 166.43999,738.45001 C166.19999,738.45001 165.93666,738.27668 165.64999,737.93001 L165.46999,737.67001 C165.95666,737.00334 166.35666,736.17667 166.66999,735.19 L166.23999,734.97 C165.95332,735.84333 165.61332,736.57666 165.21999,737.16999 C165.10666,736.90332 165.00333,736.58999 164.91,736.22999 C164.77,735.72999 164.68,735.09332 164.64,734.31999 L167.1,734.31999 L167.1,733.82 L166.4,733.82 C166.28667,733.52667 166.14334,733.21334 165.97001,732.88001 L165.47001,732.97001 C165.63668,733.23001 165.78668,733.51334 165.92001,733.82002 L164.61001,733.82002 C164.59668,733.60668 164.59001,733.27335 164.59001,732.82002 L164.07001,732.82002 C164.07001,733.27335 164.07668,733.60668 164.09001,733.82002 L159.37001,733.82002 L159.37001,735.62001 C159.35001,736.84668 159.06668,737.81335 158.52001,738.52002 L158.93001,738.88002 C159.54334,738.066689 159.87001,736.98002 159.91001,735.62002 L159.91001,734.32002 L164.11001,734.32002 C164.16334,735.19335 164.26667,735.91335 164.42,736.48002 C164.54,736.89335 164.69,737.27668 164.87,737.63001 C164.52333,738.01668 164.15,738.32668 163.75,738.56001 L164.03,738.99001 Z M163.73,735.72 L163.73,735.26 L160.44,735.26 L160.44,735.72 L163.73,735.72 Z M163.46,738.41 L163.46,736.45 L160.77,736.45 L160.77,738.41 L163.46,738.41 Z M162.95,737.97 L161.28,737.97 L161.28,736.89 L162.95,736.89 L162.95,737.97 Z M163.65002,740.56998 L164.06002,740.28998 C163.826689,739.93665 163.45335,739.483311 162.94002,738.92998 L162.53002,739.18998 C162.99002,739.67665 163.36335,740.13665 163.65002,740.56998 Z M164.15,741.82 C164.57,741.82 164.87333,741.75 165.06,741.61 C165.27333,741.43667 165.42,740.97 165.5,740.21 L164.98,740.05 C164.92,740.66333 164.81667,741.03333 164.67,741.16 C164.55,741.26 164.34333,741.31 164.05,741.31 L162.23,741.31 C161.85,741.31 161.66,741.11333 161.66,740.72 L161.66,739.01 L161.11,739.01 L161.11,740.83 C161.11,741.49 161.43,741.82 162.07,741.82 L164.15,741.82 Z M159.02,741.65 C159.50667,740.95667 159.89,740.12666 160.17,739.15999 L159.67,739.04999 C159.43,739.89666 159.06,740.66333 158.56,741.35 L159.02,741.65 Z M167.09001,741.40999 L167.52001,741.10999 C167.16668,740.56332 166.68333,739.95667 166.07,739.29 L165.63,739.57 C166.23667,740.22333 166.72334,740.83666 167.09001,741.40999 Z M169.16,733.89999 C172.32667,733.89999 174.9,733.73667 176.88,733.41 L176.62,732.95 C174.66,733.24333 172.12,733.39666 169,733.40999 L169.16,733.89999 Z M169.43001,738.15998 L169.43001,736.49998 L176.57001,736.49998 L176.57001,738.15998 L177.11001,738.15998 L177.11001,735.97999 L175.12,735.97999 C175.48667,735.49332 175.83334,734.91665 176.16001,734.24998 L175.62001,734.04998 C175.34001,734.71665 174.98334,735.35998 174.55001,735.97998 L168.89001,735.97998 L168.89001,738.15998 L169.43001,738.15998 Z M172.98002,735.77999 L173.46002,735.53999 C173.166689,735.01999 172.85335,734.54666 172.52002,734.11999 L172.04002,734.35999 C172.366689,734.76666 172.68002,735.23999 172.98002,735.77999 Z M170.66002,735.85999 L171.14002,735.62999 C170.86002,735.17666 170.53334,734.71998 170.16001,734.25998 L169.68001,734.48998 C170.02668,734.89665 170.35335,735.35332 170.66002,735.85999 Z M177.100029,741.99001 L177.410029,741.51001 C175.883359,741.18334 174.623359,740.77667 173.630039,740.29 C174.643359,739.68333 175.386689,738.95666 175.86002,738.10999 L175.86002,737.63999 L170.040029,737.63999 L170.040029,738.13999 L170.500029,738.13999 C170.893359,738.95332 171.583359,739.66999 172.570029,740.28999 C171.496699,740.78999 170.183369,741.18666 168.630039,741.47999 L168.910039,741.97999 C170.583369,741.62666 171.976699,741.16333 173.090029,740.59 C174.143359,741.15667 175.480029,741.62334 177.100029,741.99001 Z M173.10002,740.00999 C172.15335,739.47666 171.466689,738.85332 171.04002,738.13999 L175.26002,738.13999 C174.79335,738.84666 174.07335,739.46999 173.10002,740.00999 Z M179.82,737.44999 C182.74667,737.21666 184.75,736.13999 185.83,734.21999 L185.83,733.77999 L182.82,733.77999 C183.04667,733.59999 183.28,733.37333 183.52,733.1 L183.04,732.85 C182.16,733.82333 180.82,734.49 179.02,734.85 L179.34,735.33 C180.40667,735.10333 181.33,734.75333 182.11,734.28 L185.2,734.28 C184.61333,735.18 183.76333,735.86 182.65,736.32 C182.32333,735.91333 181.96,735.52666 181.56,735.15999 L181.09,735.38999 C181.46333,735.70999 181.81333,736.07999 182.14,736.49999 C181.4,736.73999 180.55,736.88999 179.59,736.94999 L179.82,737.44999 Z M179.21002,741.79999 C183.076689,741.71999 185.713359,740.48999 187.120029,738.10999 L187.120029,737.67999 L184.200029,737.67999 C184.540029,737.44666 184.853359,737.17666 185.140029,736.86999 L184.680029,736.61999 C183.613359,737.74666 181.996689,738.41999 179.83002,738.63999 L180.15002,739.11999 C181.38335,738.91999 182.44668,738.60666 183.34001,738.17999 L186.43001,738.17999 C185.77001,739.17332 184.84334,739.92332 183.65001,740.42999 C183.30334,739.96332 182.91667,739.51332 182.49,739.07999 L182.01,739.31999 C182.39667,739.69999 182.77334,740.13666 183.14001,740.62999 C181.98668,741.03666 180.60335,741.24999 178.99002,741.26999 L179.21002,741.79999 Z M195.14,741.98 L195.14,738.58 L196.64,738.58 L196.64,739.13 L197.17,739.13 L197.17,734.71 L195.14,734.71 L195.14,732.89 L194.61,732.89 L194.61,734.71 L192.62,734.71 L192.62,739.13 L193.14,739.13 L193.14,738.58 L194.61,738.58 L194.61,741.98 L195.14,741.98 Z M190.68001,742.04 L190.68001,737.24 C191.04668,737.66667 191.46335,738.22667 191.93002,738.92 L192.24002,738.47 C191.68002,737.79667 191.16002,737.22334 190.68002,736.75001 L190.68002,736.18001 L192.03002,736.18001 L192.03002,735.65001 L190.68002,735.65001 L190.68002,733.85001 C191.166689,733.73001 191.613359,733.59668 192.020029,733.45001 L191.840029,732.95001 C190.913359,733.29668 189.82333,733.54 188.57,733.68 L188.67,734.19 C189.15,734.13667 189.64,734.06 190.14,733.96 L190.14,735.65 L188.54,735.65 L188.54,736.18 L190.1,736.18 C189.76,737.42 189.18333,738.52 188.37,739.48 L188.59,740.05 C189.25667,739.19667 189.77334,738.24 190.14001,737.18 L190.14001,742.04 L190.68001,742.04 Z M194.61,738.08 L193.14,738.08 L193.14,735.23 L194.61,735.23 L194.61,738.08 Z M196.64,738.08 L195.14,738.08 L195.14,735.23 L196.64,735.23 L196.64,738.08 Z M198.76001,735.79999 C199.47334,735.28666 200.04001,734.71999 200.46001,734.09999 L206.89001,734.09999 L206.89001,733.62999 L200.74001,733.62999 C200.86668,733.38332 200.97335,733.12999 201.06002,732.86999 L200.52002,732.80999 C200.15335,733.80999 199.45668,734.66332 198.43001,735.36999 L198.76001,735.79999 Z M206.13001,735.34999 L206.13001,734.89999 L200.23001,734.89999 L200.23001,735.34999 L206.13001,735.34999 Z M206.66002,741.90998 C206.85335,741.90998 207.02335,741.77998 207.17002,741.51998 C207.32335,741.22665 207.46668,740.67332 207.60001,739.85999 L207.14001,739.63999 C207.06001,740.09999 206.99001,740.47999 206.93001,740.77999 C206.84334,741.11999 206.73334,741.28999 206.60001,741.28999 C206.44668,741.28999 206.33001,741.10666 206.25001,740.73999 C206.169118,740.422657 206.12598,739.684289 206.120588,738.52488 L206.12001,736.15999 L199.26001,736.15999 L199.26001,736.62999 L205.60001,736.62999 L205.60001,738.26999 C205.60001,739.74999 205.68668,740.71999 205.86001,741.17999 C206.02668,741.65332 206.29335,741.89665 206.66002,741.90998 Z M205.01001,739.39999 L205.29001,738.92999 C204.32334,738.38999 203.52334,737.75332 202.89001,737.01999 L202.50001,737.31999 C203.18001,738.12666 204.01668,738.81999 205.01001,739.39999 Z M198.84,739.40999 C199.38,739.12332 199.85,738.80999 200.25,738.46999 C200.57667,738.17666 200.90667,737.79 201.24,737.31 L200.82,737.05 C200.52667,737.48333 200.21,737.84 199.87,738.12 C199.49667,738.45333 199.05667,738.73666 198.55,738.96999 L198.84,739.40999 Z M199.12,741.96 C199.86,741.62667 200.41667,741.26 200.79,740.86 C201.07667,740.51333 201.31334,740.03666 201.50001,739.42999 L203.42001,739.42999 C203.40001,740.34332 203.33001,740.90999 203.21001,741.12999 C203.09001,741.34332 202.81001,741.45665 202.37001,741.46998 L201.75001,741.42999 L201.89001,741.91998 C202.12334,741.93998 202.32001,741.94998 202.48001,741.94998 C203.02001,741.94998 203.39668,741.80665 203.61001,741.51998 C203.82334,741.24665 203.94001,740.38332 203.96001,738.92999 L199.71001,738.92999 L199.71,739.42999 L200.98,739.42999 C200.82667,739.91666 200.60667,740.31333 200.32,740.62 C199.98,740.95333 199.46667,741.26 198.78,741.54 L199.12,741.96 Z M209.53001,741.98001 L209.53001,741.49001 L216.47001,741.49001 L216.47001,741.98001 L216.99001,741.98001 L216.99001,733.35001 L209.01001,733.35001 L209.01001,741.98001 L209.53001,741.98001 Z M216.47001,740.99001 L209.53001,740.99001 L209.53001,733.85001 L216.47001,733.85001 L216.47001,740.99001 Z M213.22,740.52 L213.22,738.32 L215.1,738.32 C215.08667,738.8 215.05334,739.12333 215.00001,739.29001 C214.92001,739.53667 214.69668,739.66334 214.33001,739.67001 C214.19001,739.67001 214.02001,739.66001 213.82001,739.64001 L213.98001,740.10001 C214.13334,740.12001 214.26667,740.13001 214.38,740.13001 C214.95333,740.11001 215.30333,739.92668 215.43,739.58001 C215.53667,739.29334 215.59334,738.71334 215.60001,737.84001 L213.22001,737.84001 L213.22001,736.93001 L215.21001,736.93001 L215.21001,736.46001 L213.22001,736.46001 L213.22001,735.55001 L215.63001,735.55001 L215.63001,735.07001 L213.22001,735.07001 L213.22001,734.29001 L212.68001,734.29001 L212.68001,735.07001 L210.34,735.07 L210.34,735.55 L212.68,735.55 L212.68,736.46 L210.76,736.46 L210.76,736.93 L212.68,736.93 L212.68,737.84 L210.2,737.84 L210.2,738.32 L212.68,738.32 L212.68,740.52 L213.22,740.52 Z M218.96999,741.96 C219.74999,741.18 220.26999,740.09 220.52999,738.69 C220.86332,739.10333 221.31665,739.75666 221.88998,740.64999 L222.19998,740.17999 C221.65998,739.41999 221.12998,738.73999 220.60998,738.13999 C220.663311,737.69999 220.696641,737.19666 220.709971,736.62999 L220.709971,736.25999 C221.416641,735.73332 221.97999,735.19666 222.39999,734.64999 L222.08999,734.24999 C221.72332,734.74999 221.26332,735.23666 220.70999,735.70999 L220.70999,732.94999 L220.18999,732.94999 L220.18999,736.62999 C220.16999,738.89666 219.62666,740.55333 218.55999,741.6 L218.96999,741.96 Z M224.859961,741.88998 C225.413291,741.88998 225.689961,741.603311 225.689961,741.02998 L225.689961,734.04998 L227.519961,734.04998 L227.519961,733.51998 L222.449971,733.51998 L222.449971,734.04998 L225.149971,734.04998 L225.149971,740.88998 C225.149971,741.22998 224.989971,741.39998 224.669971,741.39998 C224.403301,741.39998 223.956631,741.38665 223.329961,741.35998 L223.449971,741.88998 L224.859961,741.88998 Z M219,737.81999 C219.21333,736.89999 219.33667,735.90667 219.37,734.84 L218.89,734.8 C218.87,735.81333 218.75,736.77666 218.53,737.68999 L219,737.81999 Z M228.88998,739.34999 C229.883311,739.19666 230.906641,738.93666 231.959971,738.56999 L231.959971,738.05999 C231.153301,738.35332 230.356631,738.57999 229.569961,738.73999 C230.209961,738.03999 231.046631,736.75999 232.079961,734.89999 L231.589961,734.71999 C231.223291,735.37332 230.993291,735.78665 230.899961,735.95998 C230.439961,736.03998 229.889961,736.11665 229.249961,736.18998 C229.816631,735.46998 230.38998,734.43666 230.96998,733.08999 L230.45998,732.88999 C229.97998,734.10999 229.42665,735.15666 228.79998,736.02999 C228.733311,736.12999 228.653311,736.19999 228.55998,736.23999 L228.69998,736.73999 C229.35998,736.65332 229.993311,736.56332 230.59998,736.46999 C229.96665,737.51666 229.42998,738.25333 228.98998,738.68 C228.903311,738.75333 228.81998,738.80666 228.73998,738.83999 L228.88998,739.34999 Z M237.529961,741.61998 L237.529961,741.09998 L236.639961,741.09998 L236.639961,733.33998 L232.699961,733.33998 L232.699961,741.09998 L231.789961,741.09998 L231.789961,741.61998 L237.529961,741.61998 Z M236.109961,735.86998 L233.229961,735.86998 L233.229961,733.85998 L236.109961,733.85998 L236.109961,735.86998 Z M236.109961,738.45998 L233.229961,738.45998 L233.229961,736.38998 L236.109961,736.38998 L236.109961,738.45998 Z M236.109961,741.09998 L233.229961,741.09998 L233.229961,738.97998 L236.109961,738.97998 L236.109961,741.09998 Z M228.70999,741.42999 C229.92332,741.16999 230.99667,740.83 231.93,740.41 L231.93,739.88 C231.00333,740.29333 229.90666,740.62666 228.63999,740.88 L228.70999,741.42999 Z M238.61,736.94 C240.43667,735.92667 241.9,734.73 243,733.35 C244.2,734.81667 245.65,736.00667 247.35,736.92 L247.64,736.42 C245.96667,735.55333 244.48667,734.36667 243.2,732.86 L242.8,732.86 C241.61333,734.28 240.12333,735.47 238.33,736.43 L238.61,736.94 Z M245.58,736.60999 L245.58,736.07999 L240.42,736.07999 L240.42,736.60999 L245.58,736.60999 Z M240.44,741.95999 L240.44,741.30999 L245.56,741.30999 L245.56,741.95999 L246.09,741.95999 L246.09,738.02999 L239.91,738.02999 L239.91,741.95999 L240.44,741.95999 Z M245.56,740.78999 L240.44,740.78999 L240.44,738.54999 L245.56,738.54999 L245.56,740.78999 Z" id="path-1"></path>
    </defs>
    <g id="转曲" stroke="none" stroke-width="1" fill="none" fill-rule="evenodd">
        <g id="iPhone-11-Pro氛围灯" transform="translate(-118.000000, -732.000000)" fill-rule="nonzero">
            <g id="左右滑动感受多种氛围灯组合">
                <use fill="#000000" xlink:href="#path-1"></use>
                <use fill-opacity="0.4" fill="#FFFFFF" xlink:href="#path-1"></use>
            </g>
        </g>
    </g>
</svg>