<?xml version="1.0" encoding="UTF-8"?>
<svg width="114px" height="30px" viewBox="0 0 114 30" version="1.1" xmlns="http://www.w3.org/2000/svg" xmlns:xlink="http://www.w3.org/1999/xlink">
    <title>编组 7</title>
    <g id="转曲" stroke="none" stroke-width="1" fill="none" fill-rule="evenodd">
        <g id="编组-7" fill="#FFFFFF" fill-rule="nonzero">
            <path d="M4.43294922,4.13394922 C5.01362012,3.49262012 5.52494922,2.74727832 5.96694922,1.89794922 L11.6349492,1.89794922 L11.6349492,1.23494922 L6.27894922,1.23494922 C6.39162012,0.974949219 6.52594922,0.636949219 6.68194922,0.220949219 L6.00594922,0.0519492187 C5.52062012,1.45594922 4.84894922,2.63462012 3.99094922,3.58794922 L4.43294922,4.13394922 Z M8.61897461,11.9729619 C9.23430371,11.9729619 9.70663281,11.886291 10.0359619,11.7129619 C10.3479619,11.5049619 10.5689619,11.197291 10.6989619,10.7899619 C10.716291,10.7119619 10.7466201,10.495291 10.7899492,10.1399619 L11.8039492,10.1399619 L11.8039492,9.50296191 L10.8419492,9.50296191 C10.8852783,8.84429102 10.9242783,7.97762012 10.9589492,6.90294922 L11.9469492,6.90294922 L11.9469492,6.23994922 L10.986,6.2399873 C10.9937693,6.10570691 11.0279396,5.07549961 11.0889492,3.14594922 L5.31694922,3.14594922 C5.29094922,4.02994922 5.23462012,5.06127832 5.14794922,6.23994922 L4.14694922,6.23994922 L4.14694922,6.64294922 C3.61827832,5.75894922 3.09827832,4.96594922 2.58694922,4.26394922 L2.58694922,3.43194922 L3.95194922,3.43194922 L3.95194922,2.76894922 L2.58694922,2.76894922 L2.58694922,0.142949219 L1.91094922,0.142949219 L1.91094922,2.76894922 L0.208,2.7689873 L0.208,3.4319873 L1.885,3.4319873 C1.521,5.16531641 0.892670898,6.70364551 7.10542736e-15,8.04697461 L0.299,8.78797461 C0.966329102,7.71330371 1.5036582,6.48263281 1.9109873,5.09596191 L1.9109873,11.9469619 L2.5869873,11.9469619 L2.5869873,5.01796191 C2.9509873,5.63329102 3.3539873,6.38296191 3.7959873,7.26696191 L4.1469873,6.75996191 L4.1469873,6.90296191 L5.0829873,6.90296191 C4.94431641,8.07296191 4.7839873,9.15196191 4.6019873,10.1399619 L10.1139873,10.1399619 C10.0879873,10.3739619 10.0619873,10.5299619 10.0359873,10.6079619 C9.89731641,10.937291 9.69364551,11.1539619 9.42497461,11.2579619 C9.13030371,11.327291 8.82697461,11.3619619 8.51497461,11.3619619 C8.33297461,11.3619619 7.99064551,11.353291 7.48797461,11.3359619 L7.69597461,11.9729619 L8.61897461,11.9729619 Z M10.3219492,6.23994922 L5.79794922,6.23994922 C5.86727832,5.25194922 5.91494922,4.42862012 5.94094922,3.76994922 L10.3999492,3.76994922 L10.3219492,6.23994922 Z M8.57994922,6.00596191 L9.02194922,5.56396191 C8.57127832,5.09596191 8.03827832,4.64963281 7.42294922,4.22496191 L6.98094922,4.64096191 C7.65694922,5.10896191 8.18994922,5.56396191 8.57994922,6.00596191 Z M10.1659492,9.50294922 L5.39494922,9.50294922 C5.52494922,8.73162012 5.64194922,7.86494922 5.74594922,6.90294922 L10.2959492,6.90294922 L10.1659492,9.50294922 Z M8.37194922,9.13896191 L8.81394922,8.70996191 C8.38062012,8.20729102 7.86927832,7.73063281 7.27994922,7.27996191 L6.85094922,7.69596191 C7.47494922,8.19863281 7.98194922,8.67963281 8.37194922,9.13896191 Z M16.328,10.036 L16.328,7.618 L21.736,7.618 L21.736,10.036 L22.425,10.036 L22.425,7.384 C22.9796709,7.6786709 23.6643418,7.9516709 24.4790127,8.203 L24.7650127,7.592 C23.2050127,7.1933291 22.0696709,6.6646709 21.359,6.006 L24.492,6.006 L24.492,5.421 L20.826,5.421 L20.826,4.472 L22.594,4.472 L22.594,3.926 L20.826,3.926 L20.826,3.003 L22.841,3.003 L22.841,2.444 L20.826,2.444 L20.826,1.547 L23.465,1.547 L23.465,2.912 L24.141,2.912 L24.141,0.936 L19.448,0.936 C19.292,0.606670898 19.1143291,0.294670898 18.915,-1.24344979e-14 L18.174,0.117 C18.356,0.333670898 18.5423291,0.606670898 18.733,0.936 L13.819,0.936 L13.819,2.912 L14.495,2.912 L14.495,1.547 L17.134,1.547 L17.134,2.444 L15.119,2.444 L15.119,3.003 L17.134,3.003 L17.134,3.926 L15.379,3.926 L15.379,4.472 L17.134,4.472 L17.134,5.421 L13.494,5.421 L13.494,6.006 L16.575,6.006 C15.821,6.6646709 14.6856709,7.2063418 13.169,7.6310127 L13.52,8.2160127 C14.3173291,7.9473418 15.028,7.6396709 15.652,7.293 L15.652,10.036 L16.328,10.036 Z M20.1240127,2.4439873 L17.8230127,2.4439873 L17.8230127,1.5469873 L20.1240127,1.5469873 L20.1240127,2.4439873 Z M20.1240127,3.9259873 L17.8230127,3.9259873 L17.8230127,3.0029873 L20.1240127,3.0029873 L20.1240127,3.9259873 Z M20.1240127,5.4209873 L17.8230127,5.4209873 L17.8230127,4.4719873 L20.1240127,4.4719873 L20.1240127,5.4209873 Z M21.84,7.0329873 L16.081,7.0329873 C16.5403291,6.7296582 16.939,6.3873291 17.277,6.006 L20.644,6.006 C20.93,6.3526709 21.3286709,6.6949873 21.84,7.0329873 Z M14.3910127,12.051 C16.3496836,11.895 17.6280127,11.5223291 18.2260127,10.933 C18.7546836,10.4303291 19.0970127,9.516 19.2530127,8.19 L18.5770127,8.125 C18.4990127,9.243 18.1956836,10.0403291 17.6670127,10.517 C17.1036836,11.0283291 15.9206836,11.336 14.1180127,11.44 L14.3910127,12.051 Z M23.3610127,12.09 L23.7250127,11.531 C22.5290127,10.881 21.2030127,10.3349873 19.7470127,9.8929873 L19.3830127,10.4259873 C20.7350127,10.8246582 22.0610127,11.3793291 23.3610127,12.09 Z M37.115,5.8759873 L37.115,2.9119873 L33.683,2.9119873 L33.904,1.7549873 L37.453,1.7549873 L37.453,1.1179873 L33.995,1.1179873 L34.099,0.168987305 L33.41,0.0779873047 L33.293,1.1179873 L30.069,1.1179873 L30.069,1.7549873 L33.215,1.7549873 C33.137,2.2229873 33.0676709,2.6086582 33.007,2.9119873 L30.433,2.9119873 L30.433,5.8759873 L37.115,5.8759873 Z M26.299,4.1989873 C27.7463291,3.1156582 28.808,1.8459873 29.484,0.389987305 L28.86,0.103987305 C28.288,1.3606582 27.3606709,2.4959873 26.078,3.5099873 L26.299,4.1989873 Z M28.6,12.0119873 L28.6,5.5119873 C29.068,4.9226582 29.4536709,4.3116582 29.757,3.6789873 L29.146,3.3929873 C28.522,4.7189873 27.5166709,5.90631641 26.13,6.9549873 L26.338,7.6309873 C26.91,7.2149873 27.43,6.7729873 27.898,6.3049873 L27.898,12.0119873 L28.6,12.0119873 Z M36.478,5.2519873 L35.048,5.2519873 L35.048,3.5099873 L36.478,3.5099873 L36.478,5.2519873 Z M34.463,5.2519873 L33.072,5.2519873 L33.072,3.5099873 L34.463,3.5099873 L34.463,5.2519873 Z M32.5,5.2519873 L31.057,5.2519873 L31.057,3.5099873 L32.5,3.5099873 L32.5,5.2519873 Z M37.388,7.5789873 L37.388,6.9289873 L30.121,6.9289873 L30.121,7.5789873 L37.388,7.5789873 Z M34.6449873,10.0489873 L35.1649873,9.6849873 C34.8789873,9.2516582 34.4326582,8.7056582 33.8259873,8.0469873 L33.3059873,8.3719873 C33.8519873,8.96131641 34.2983164,9.52031641 34.6449873,10.0489873 Z M37.401,11.2059873 L37.999,10.9459873 C37.609,9.92331641 37.1843291,9.0219873 36.725,8.2419873 L36.114,8.4369873 C36.582,9.2429873 37.011,10.1659873 37.401,11.2059873 Z M34.9439873,11.8949873 C35.3253164,11.8949873 35.6069873,11.8169873 35.7889873,11.6609873 C35.9969873,11.4529873 36.1313164,10.9286582 36.1919873,10.0879873 L35.5679873,9.8929873 C35.5159873,10.5776582 35.4293164,10.9806582 35.3079873,11.1019873 C35.2213164,11.2059873 35.0609873,11.2579873 34.8269873,11.2579873 L32.9289873,11.2579873 C32.5909873,11.2579873 32.4219873,11.1019873 32.4219873,10.7899873 L32.4219873,8.4499873 L31.7719873,8.4499873 L31.7719873,10.9199873 C31.7719873,11.5699873 32.0883164,11.8949873 32.7209873,11.8949873 L34.9439873,11.8949873 Z M29.8349873,11.5829873 C30.2943164,10.7769873 30.654,9.7976582 30.914,8.6449873 L30.264,8.5149873 C30.0473291,9.4856582 29.7136582,10.3826582 29.2629873,11.2059873 L29.8349873,11.5829873 Z M45.11,8.671 L45.11,8.021 L44.2,8.021 L44.2,2.34 L45.136,2.34 L45.136,1.703 L44.2,1.703 L44.2,0.221 L43.524,0.221 L43.524,1.703 L40.95,1.703 L40.95,0.208 L40.274,0.208 L40.274,1.703 L39.325,1.703 L39.325,2.34 L40.274,2.34 L40.274,8.021 L39.234,8.021 L39.234,8.671 L45.11,8.671 Z M49.296,11.947 L49.296,5.096 L50.752,5.096 L50.752,4.433 L46.631,4.433 L46.631,1.872 C48.0176709,1.794 49.309,1.4906582 50.505,0.961987305 L50.154,0.350987305 C48.8973291,0.931658203 47.5063291,1.2393291 45.981,1.274 L45.981,6.292 C45.903,8.4846709 45.4133291,10.2006709 44.512,11.44 L44.993,11.947 C46.007,10.543 46.553,8.658 46.631,6.292 L46.631,5.096 L48.607,5.096 L48.607,11.947 L49.296,11.947 Z M43.524,3.835 L40.95,3.835 L40.95,2.34 L43.524,2.34 L43.524,3.835 Z M43.524,5.902 L40.95,5.902 L40.95,4.446 L43.524,4.446 L43.524,5.902 Z M43.524,8.021 L40.95,8.021 L40.95,6.513 L43.524,6.513 L43.524,8.021 Z M39.65,11.96 C40.326,11.284 40.9326709,10.4476709 41.47,9.451 L40.872,9.165 C40.378,10.0836709 39.78,10.8766709 39.078,11.544 L39.65,11.96 Z M43.745,11.271 L44.278,10.881 C44.0093291,10.387 43.6323291,9.8193291 43.147,9.178 L42.614,9.516 C43.0993291,10.1486709 43.4763291,10.7336709 43.745,11.271 Z M58.695,7.6959873 L58.695,7.0199873 L52.13,7.0199873 L52.13,7.6959873 L58.695,7.6959873 Z M71.409,5.7979873 L71.695,5.1739873 C69.745,4.4546582 68.3323291,3.4623291 67.457,2.197 L71.24,2.197 L71.24,1.534 L65.507,1.534 C65.741,1.066 65.9273291,0.624 66.066,0.208 L65.364,0.13 C65.208,0.624 65,1.092 64.74,1.534 L60.541,1.5339873 L60.541,2.1969873 L64.298,2.1969873 C63.362,3.4189873 61.958,4.3939873 60.086,5.1219873 L60.424,5.7199873 C62.53,4.93131641 64.0943291,3.7569873 65.117,2.1969873 L66.729,2.1969873 C67.6216709,3.6876582 69.1816709,4.8879873 71.409,5.7979873 Z M66.196,7.2409873 L66.196,5.5769873 L69.277,5.5769873 L69.277,4.9399873 L66.196,4.9399873 L66.196,3.3149873 L65.52,3.3149873 L65.52,4.9399873 L62.569,4.9399873 L62.569,5.5769873 L65.52,5.5769873 L65.52,7.2409873 L66.196,7.2409873 Z M60.853,12.064 C61.8843291,11.648 62.634,11.0846709 63.102,10.374 C63.3533291,9.9406709 63.5396582,9.4206709 63.6609873,8.814 L67.8729873,8.814 L67.8729873,11.947 L68.5619873,11.947 L68.5619873,8.814 L71.5779873,8.814 L71.5779873,8.151 L68.5619873,8.151 L68.5619873,6.6039873 L67.8729873,6.6039873 L67.8729873,8.151 L63.7649873,8.151 C63.7823164,7.9603291 63.7996455,7.6656582 63.8169746,7.2669873 L63.8169746,6.6039873 L63.1539746,6.6039873 L63.1539746,7.2669873 C63.1453037,7.4749873 63.1236328,7.7696582 63.0889619,8.1509873 L60.138,8.151 L60.138,8.814 L62.972,8.814 C62.868,9.23 62.7336709,9.5983291 62.569,9.919 C62.153,10.5776709 61.4596709,11.0976709 60.489,11.479 L60.853,12.064 Z M83.2,11.7909873 C83.6853291,11.7909873 84.0406582,11.6696582 84.2659873,11.4269873 C84.5346582,11.1063164 84.7079873,10.2829873 84.7859873,8.9569873 L84.1619873,8.7619873 C84.1013164,9.9146582 83.9756455,10.6166582 83.7849746,10.8679873 C83.6549746,11.0499873 83.4166455,11.1409873 83.0699746,11.1409873 L80.1189746,11.1409873 C79.7289746,11.1409873 79.5339746,10.9503164 79.5339746,10.5689873 L79.5339746,4.5499873 L81.1069746,4.0689873 L81.1069746,9.2429873 L81.7829746,9.2429873 L81.7829746,3.8609873 L83.4339746,3.3539873 L83.4332671,3.94096346 C83.4287864,5.7216816 83.4030222,6.76102288 83.3559746,7.0589873 C83.2866455,7.38831641 83.1219746,7.5529873 82.8619746,7.5529873 L82.4459746,7.5399873 L82.6409746,8.1899873 L82.7319746,8.1899873 C83.4426455,8.1899873 83.8499746,7.90831641 83.9539746,7.3449873 C84.0579746,6.7556582 84.11,5.1176582 84.11,2.4309873 L81.783,3.1719873 L81.783,0.194987305 L81.107,0.194987305 L81.107,3.3799873 L79.534,3.8739873 L79.534,1.3519873 L78.871,1.3519873 L78.871,4.0819873 L77.818,4.4199873 L77.818,5.0829873 L78.871,4.7579873 L78.871,10.6989873 C78.871,11.4269873 79.2176709,11.7909873 79.911,11.7909873 L83.2,11.7909873 Z M75.5559873,11.8299873 C76.3533164,11.8299873 76.8819873,11.6089873 77.1419873,11.1669873 C77.3933164,10.7076582 77.5189873,9.0349873 77.5189873,6.1489873 L76.5309873,6.1489873 L77.1419873,0.792987305 L73.0989873,0.792987305 L73.0989873,1.4689873 L76.4269746,1.4689873 L75.8549746,6.1489873 L74.1259746,6.1489873 L74.6459746,2.5479873 L73.9829746,2.4959873 L73.3719746,6.7989873 L76.8299746,6.7989873 C76.8299746,8.8529873 76.7606455,10.1139873 76.6219746,10.5819873 C76.4919746,11.0066582 76.0846455,11.2189873 75.3999746,11.2189873 C75.2526455,11.2189873 74.8973164,11.1973164 74.3339873,11.1539873 L74.5289873,11.7909873 C74.8929873,11.8169873 75.2353164,11.8299873 75.5559873,11.8299873 Z M72.8389873,9.5419873 C74.0089873,9.3599873 75.0749873,9.11731641 76.0369873,8.8139873 L76.0369873,8.1509873 C75.1269873,8.4369873 74.0263164,8.67531641 72.7349873,8.8659873 L72.8389873,9.5419873 Z" id="梅赛德斯-奔驰" opacity="0.8"></path>
            <path d="M7.684,28.7249873 L7.684,28.2209873 L1.062,28.2209873 L1.062,23.7829873 L7.124,23.7829873 L7.124,23.2789873 L1.062,23.2789873 L1.062,19.2329873 L7.446,19.2329873 L7.446,18.7289873 L0.516,18.7289873 L0.516,28.7249873 L7.684,28.7249873 Z M17.652,29.6769873 L18.044,29.3409873 C17.652,28.7529873 17.246,28.1929873 16.84,27.6609873 C16.924,27.5769873 16.994,27.4929873 17.078,27.4089873 C17.876,26.4429873 18.282,25.2109873 18.282,23.7269873 C18.282,22.2289873 17.876,21.0109873 17.078,20.0589873 C16.224,19.0369873 15.062,18.5329873 13.606,18.5329873 C12.15,18.5329873 10.988,19.0369873 10.134,20.0589873 C9.322,21.0109873 8.916,22.2429873 8.916,23.7269873 C8.916,25.2109873 9.322,26.4429873 10.134,27.3949873 C10.974,28.4029873 12.136,28.9209873 13.606,28.9209873 C14.726,28.9209873 15.678,28.6129873 16.462,28.0109873 C16.854,28.5429873 17.26,29.0889873 17.652,29.6769873 Z M13.606,28.4029873 C12.318,28.4029873 11.296,27.9549873 10.54,27.0589873 C9.812,26.2049873 9.462,25.0989873 9.462,23.7269873 C9.462,22.3689873 9.812,21.2629873 10.54,20.3949873 C11.296,19.4989873 12.318,19.0509873 13.606,19.0509873 C14.894,19.0509873 15.902,19.4989873 16.658,20.3949873 C17.372,21.2349873 17.736,22.3549873 17.736,23.7269873 C17.736,25.0989873 17.372,26.2049873 16.658,27.0589873 L16.504,27.2269873 L16.504,27.2269873 C15.86,26.4149873 15.216,25.6449873 14.558,24.9309873 L14.194,25.2809873 C14.852,25.9809873 15.496,26.7509873 16.126,27.5769873 C15.454,28.1229873 14.614,28.4029873 13.606,28.4029873 Z M24.106,28.9209873 C25.156,28.9209873 26.066,28.6269873 26.836,28.0389873 C27.662,27.3809873 28.18,26.4849873 28.404,25.3369873 L27.872,25.3369873 C27.676,26.3169873 27.2,27.1009873 26.472,27.6609873 C25.8,28.1509873 25.016,28.4029873 24.106,28.4029873 C22.846,28.4029873 21.852,27.9549873 21.124,27.0729873 C20.41,26.2189873 20.06,25.1269873 20.06,23.7829873 C20.06,22.4389873 20.41,21.3189873 21.124,20.4369873 C21.894,19.5129873 22.93,19.0509873 24.232,19.0509873 C25.1,19.0509873 25.856,19.2749873 26.528,19.7509873 C27.214,20.2409873 27.62,20.8989873 27.732,21.7109873 L28.264,21.7109873 C28.152,20.7449873 27.69,19.9609873 26.878,19.3729873 C26.122,18.8129873 25.24,18.5329873 24.232,18.5329873 C22.748,18.5329873 21.572,19.0509873 20.718,20.1149873 C19.906,21.0949873 19.514,22.3129873 19.514,23.7829873 C19.514,25.2389873 19.906,26.4429873 20.704,27.3949873 C21.544,28.4029873 22.678,28.9209873 24.106,28.9209873 Z M37.896,28.9209873 C38.862,28.9209873 39.646,28.6409873 40.262,28.0809873 C40.878,27.5209873 41.186,26.7929873 41.186,25.9109873 C41.186,25.3229873 41.018,24.8189873 40.696,24.3989873 C40.374,23.9789873 39.926,23.6849873 39.366,23.5029873 C40.43,23.1389873 40.976,22.3689873 40.976,21.1789873 C40.976,20.3949873 40.696,19.7509873 40.15,19.2609873 C39.59,18.7709873 38.876,18.5329873 37.98,18.5329873 C37.084,18.5329873 36.356,18.7849873 35.81,19.3169873 C35.25,19.8489873 34.914,20.5769873 34.816,21.4869873 L35.348,21.4869873 C35.446,20.7169873 35.726,20.1149873 36.174,19.6949873 C36.622,19.2469873 37.224,19.0369873 37.98,19.0369873 C38.736,19.0369873 39.338,19.2329873 39.786,19.6529873 C40.206,20.0449873 40.43,20.5629873 40.43,21.2069873 C40.43,21.8649873 40.22,22.3689873 39.814,22.7189873 C39.408,23.0829873 38.82,23.2649873 38.05,23.2649873 L37.21,23.2649873 L37.21,23.7409873 L38.162,23.7409873 C38.904,23.7409873 39.506,23.9369873 39.954,24.3429873 C40.402,24.7349873 40.64,25.2669873 40.64,25.9249873 C40.64,26.6529873 40.388,27.2409873 39.884,27.7169873 C39.38,28.1929873 38.708,28.4309873 37.896,28.4309873 C37.21,28.4309873 36.622,28.2349873 36.132,27.8709873 C35.516,27.3949873 35.18,26.6809873 35.124,25.7429873 L34.578,25.7429873 C34.662,26.8629873 35.068,27.7029873 35.796,28.2629873 C36.37,28.6969873 37.07,28.9209873 37.896,28.9209873 Z M46.226,28.9209873 C47.206,28.9209873 48.004,28.5989873 48.634,27.9829873 C49.264,27.3389873 49.586,26.5269873 49.586,25.5609873 C49.586,24.4829873 49.278,23.6429873 48.676,23.0409873 C48.088,22.4529873 47.318,22.1729873 46.366,22.1729873 C45.89,22.1729873 45.442,22.2569873 45.022,22.4529873 C44.56,22.6489873 44.182,22.9429873 43.902,23.3069873 L43.86,23.3069873 L44.238,19.2469873 L49.25,19.2469873 L49.25,18.7289873 L43.762,18.7289873 L43.272,24.1189873 L43.804,24.1189873 C44.028,23.6569873 44.378,23.2929873 44.826,23.0409873 C45.274,22.7889873 45.764,22.6629873 46.296,22.6629873 C47.108,22.6629873 47.766,22.9009873 48.27,23.3909873 C48.788,23.9089873 49.054,24.6369873 49.054,25.5609873 C49.054,26.3729873 48.788,27.0589873 48.256,27.6189873 C47.724,28.1509873 47.052,28.4309873 46.226,28.4309873 C45.526,28.4309873 44.924,28.2349873 44.434,27.8569873 C43.902,27.4369873 43.594,26.8489873 43.538,26.1209873 L42.978,26.1209873 C43.048,27.0169873 43.412,27.7169873 44.084,28.2209873 C44.672,28.6829873 45.386,28.9209873 46.226,28.9209873 Z M54.682,28.9209873 C55.9,28.9209873 56.796,28.3469873 57.356,27.1989873 C57.776,26.3169873 58,25.1549873 58,23.7269873 C58,22.2849873 57.776,21.1229873 57.356,20.2549873 C56.796,19.1069873 55.9,18.5329873 54.682,18.5329873 C53.45,18.5329873 52.568,19.1069873 52.008,20.2549873 C51.574,21.1229873 51.364,22.2709873 51.364,23.7269873 C51.364,25.1689873 51.574,26.3309873 52.008,27.1989873 C52.568,28.3469873 53.45,28.9209873 54.682,28.9209873 Z M54.682,28.4169873 C53.646,28.4169873 52.904,27.8989873 52.442,26.8629873 C52.078,26.0789873 51.91,25.0429873 51.91,23.7269873 C51.91,22.4109873 52.078,21.3609873 52.442,20.5909873 C52.904,19.5549873 53.646,19.0369873 54.682,19.0369873 C55.704,19.0369873 56.446,19.5549873 56.922,20.5909873 C57.286,21.3749873 57.468,22.4109873 57.468,23.7269873 C57.468,25.0289873 57.286,26.0789873 56.922,26.8629873 C56.446,27.8989873 55.704,28.4169873 54.682,28.4169873 Z M69.76,28.7249873 L69.76,26.3169873 L71.552,26.3169873 L71.552,25.8269873 L69.76,25.8269873 L69.76,18.7289873 L69.2,18.7289873 L63.95,25.7709873 L63.95,26.3169873 L69.228,26.3169873 L69.228,28.7249873 L69.76,28.7249873 Z M69.228,25.8269873 L64.496,25.8269873 L69.186,19.5129873 L69.228,19.5129873 L69.228,25.8269873 Z M73.526,28.7249873 L73.526,19.4709873 L73.568,19.4709873 L77.642,28.7249873 L78.23,28.7249873 L82.304,19.4709873 L82.346,19.4709873 L82.346,28.7249873 L82.892,28.7249873 L82.892,18.7289873 L82.066,18.7289873 L77.964,28.0809873 L77.922,28.0809873 L73.806,18.7289873 L72.98,18.7289873 L72.98,28.7249873 L73.526,28.7249873 Z M84.544,28.7249873 L85.818,25.5609873 L90.872,25.5609873 L92.132,28.7249873 L92.734,28.7249873 L88.674,18.7289873 L88.002,18.7289873 L83.928,28.7249873 L84.544,28.7249873 Z M90.676,25.0569873 L86.014,25.0569873 L88.324,19.3169873 L88.366,19.3169873 L90.676,25.0569873 Z M97.382,28.7249873 L97.382,19.2329873 L101.19,19.2329873 L101.19,18.7289873 L93,18.7289873 L93,19.2329873 L96.836,19.2329873 L96.836,28.7249873 L97.382,28.7249873 Z M103.22,28.7249873 L103.22,18.7289873 L102.674,18.7289873 L102.674,28.7249873 L103.22,28.7249873 Z M109.632,28.9209873 C110.682,28.9209873 111.592,28.6269873 112.362,28.0389873 C113.188,27.3809873 113.706,26.4849873 113.93,25.3369873 L113.398,25.3369873 C113.202,26.3169873 112.726,27.1009873 111.998,27.6609873 C111.326,28.1509873 110.542,28.4029873 109.632,28.4029873 C108.372,28.4029873 107.378,27.9549873 106.65,27.0729873 C105.936,26.2189873 105.586,25.1269873 105.586,23.7829873 C105.586,22.4389873 105.936,21.3189873 106.65,20.4369873 C107.42,19.5129873 108.456,19.0509873 109.758,19.0509873 C110.626,19.0509873 111.382,19.2749873 112.054,19.7509873 C112.74,20.2409873 113.146,20.8989873 113.258,21.7109873 L113.79,21.7109873 C113.678,20.7449873 113.216,19.9609873 112.404,19.3729873 C111.648,18.8129873 110.766,18.5329873 109.758,18.5329873 C108.274,18.5329873 107.098,19.0509873 106.244,20.1149873 C105.432,21.0949873 105.04,22.3129873 105.04,23.7829873 C105.04,25.2389873 105.432,26.4429873 106.23,27.3949873 C107.07,28.4029873 108.204,28.9209873 109.632,28.9209873 Z" id="EQC3504MATIC" opacity="0.4"></path>
        </g>
    </g>
</svg>