<?xml version="1.0" encoding="UTF-8"?>
<svg width="72px" height="29px" viewBox="0 0 72 29" version="1.1" xmlns="http://www.w3.org/2000/svg" xmlns:xlink="http://www.w3.org/1999/xlink">
    <title>点击视频观看产品亮点@3x</title>
    <g id="页面-2" stroke="none" stroke-width="1" fill="none" fill-rule="evenodd" fill-opacity="0.607654065">
        <g id="iPhone-11-Pro首页备份-2" transform="translate(-76.000000, -728.000000)" fill="#FFFFFF" fill-rule="nonzero">
            <path d="M85.948,735.492 L85.948,731.808 L82.12,731.808 L82.12,730.08 L86.848,730.08 L86.848,729.468 L82.12,729.468 L82.12,728.208 L81.484,728.208 L81.484,731.808 L78.208,731.808 L78.208,735.492 L85.948,735.492 Z M85.312,734.88 L78.856,734.88 L78.856,732.42 L85.312,732.42 L85.312,734.88 Z M77.128,739.115988 C77.728,738.355992 78.2599961,737.444004 78.724,736.38 L78.172,736.104 C77.7480039,737.104 77.224,737.983992 76.6,738.743988 L77.128,739.115988 Z M86.8599883,739.163965 L87.3879883,738.791965 C86.9719844,737.999965 86.3879805,737.10798 85.6359766,736.115977 L85.1079766,736.451977 C85.8599805,737.475973 86.4439844,738.379969 86.8599883,739.163965 Z M83.4279883,739.187977 L84.0759883,739.031977 C83.8039844,738.087973 83.4840039,737.187973 83.116,736.331977 L82.516,736.463977 C82.8679961,737.223973 83.1719922,738.131977 83.4279883,739.187977 Z M80.596,739.211977 L81.256,739.055977 C81.0799961,738.191977 80.86,737.319984 80.596,736.439988 L79.984,736.571988 C80.2399961,737.331984 80.4439961,738.21198 80.596,739.211977 Z M90.628,739.188 L90.628,738.6 L97.384,738.6 L97.384,739.188 L97.996,739.188 L97.996,734.712 L97.384,734.712 L97.384,738 L94.336,738 L94.336,733.524 L99.268,733.524 L99.268,732.9 L94.336,732.9 L94.336,730.692 L98.284,730.692 L98.284,730.08 L94.336,730.08 L94.336,728.304 L93.664,728.304 L93.664,730.08 L89.656,730.08 L89.656,730.692 L93.664,730.692 L93.664,732.9 L88.744,732.9 L88.744,733.524 L93.664,733.524 L93.664,738 L90.628,738 L90.628,734.712 L90.016,734.712 L90.016,739.188 L90.628,739.188 Z M102.783977,729.936023 L103.347977,729.732023 C103.16398,729.188027 102.927977,728.652012 102.639977,728.124012 L102.027977,728.292012 C102.32398,728.828016 102.57598,729.37602 102.783977,729.936023 Z M106.203977,735.312023 L106.203977,729.372023 L109.851977,729.372023 L109.851977,735.312023 L110.499977,735.312023 L110.499977,728.748023 L105.555977,728.748023 L105.555977,735.312023 L106.203977,735.312023 Z M103.036,739.176 L103.036,733.896 C103.516,734.232 104.004004,734.672004 104.5,735.216 L104.86,734.664 C104.292004,734.096004 103.684,733.612008 103.036,733.212012 C103.708,732.348012 104.196004,731.468016 104.5,730.572012 L104.5,730.020012 L100.816,730.020012 L100.816,730.644012 L103.864,730.644012 C103.327996,732.036012 102.215992,733.456008 100.527988,734.904012 L100.731988,735.576012 C101.323984,735.080016 101.880004,734.544 102.4,733.968 L102.4,739.176 L103.036,739.176 Z M104.631977,739.236023 C105.91198,738.67602 106.839977,737.89602 107.415977,736.896023 C107.991977,735.83202 108.291977,734.408016 108.315977,732.624012 L108.315977,730.308012 L107.691977,730.308012 L107.691977,732.624012 C107.667977,734.168016 107.419973,735.43602 106.947977,736.428023 C106.419977,737.372027 105.523973,738.116027 104.259977,738.660023 L104.631977,739.236023 Z M110.343977,738.984023 C110.695973,738.984023 110.955977,738.89202 111.123977,738.708023 C111.29998,738.48402 111.423977,737.888016 111.495977,736.920012 L110.895977,736.716012 C110.847977,737.532012 110.77198,738.020016 110.667977,738.180012 C110.563973,738.308016 110.415977,738.372012 110.223977,738.372012 L109.383977,738.372012 C109.087973,738.372012 108.939977,738.220008 108.939977,737.916012 L108.939977,735.300012 L108.291977,735.300012 L108.291977,738.048012 C108.291977,738.672012 108.595973,738.984023 109.203977,738.984023 L110.343977,738.984023 Z M117.58,732.576 L117.58,731.928 L115.696,731.928 L115.696,730.32 L117.436,730.32 L117.436,729.708 L115.696,729.708 L115.696,728.208 L115.06,728.208 L115.06,731.928 L113.956,731.928 L113.956,729.168 L113.332,729.168 L113.332,731.928 L112.552,731.928 L112.552,732.576 L117.58,732.576 Z M118.947988,736.488012 L118.947988,731.496012 L122.247988,731.496012 L122.247988,736.488012 L122.895988,736.488012 L122.895988,730.884012 L120.747988,730.884012 C120.827992,730.356012 120.883996,729.852012 120.916,729.372012 L123.388,729.372012 L123.388,728.760012 L117.808,728.760012 L117.808,729.372012 L120.256,729.372012 C120.223996,729.852012 120.167992,730.356012 120.087988,730.884012 L118.311988,730.884012 L118.311988,736.488012 L118.947988,736.488012 Z M117.688,739.140012 C118.807996,738.732012 119.611996,738.180012 120.1,737.484012 C120.604,736.724016 120.868,735.716016 120.892,734.460012 L120.892,732.336012 L120.244,732.336012 L120.244,734.460023 C120.22,735.53202 120.007996,736.392023 119.608,737.040023 C119.143996,737.70402 118.384,738.212016 117.328,738.564012 L117.688,739.140012 Z M115.672,736.224012 L115.672,733.140012 L115.048,733.140012 L115.048,736.224012 L115.672,736.224012 Z M113.02,739.056 C115.572004,738.216 117.1,736.467996 117.604,733.812 L117.028,733.68 C116.548,736.104 115.092004,737.7 112.66,738.468 L113.02,739.056 Z M113.068,736.56 C113.524,735.968004 113.899996,735.099996 114.196,733.956 L113.632,733.728 C113.392,734.736 113.044,735.54 112.588,736.14 L113.068,736.56 Z M123.052,739.212023 L123.532,738.732023 C122.932,738.012023 122.224,737.312016 121.408,736.632012 L120.952,737.064012 C121.824004,737.792016 122.524,738.50802 123.052,739.212023 Z M82.168,752.228 L82.168,746.372 L85.792,746.372 L85.792,752.228 L86.416,752.228 L86.416,745.748 L81.544,745.748 L81.544,752.228 L82.168,752.228 Z M76.9479883,755.683977 C77.9959844,754.651977 78.8079883,753.42398 79.3839883,751.999977 C79.8639883,752.743977 80.2799922,753.439977 80.6319883,754.087977 L81.0999883,753.631977 C80.6519922,752.831973 80.1679961,752.047977 79.648,751.279977 C80.1120039,749.935977 80.38,748.423977 80.452,746.743977 L80.452,746.251977 L76.816,746.251977 L76.816,746.875977 L79.84,746.875977 C79.7599961,748.20398 79.5479922,749.45198 79.2039883,750.619977 C78.5399922,749.69198 77.8680039,748.823984 77.188,748.015988 L76.744,748.435988 C77.6239961,749.507984 78.3599922,750.48398 78.9519883,751.363977 C78.4079922,752.83598 77.5959883,754.111977 76.5159883,755.191977 L76.9479883,755.683977 Z M80.332,756.188 C81.724,755.627996 82.7160039,754.863992 83.308,753.895988 C83.932,752.839988 84.256,751.439984 84.28,749.695988 L84.28,747.307988 L83.656,747.307988 L83.656,749.696 C83.632,751.232 83.3640039,752.476004 82.852,753.428 C82.276,754.364 81.3120039,755.099996 79.96,755.636 L80.332,756.188 Z M86.26,755.96 C86.644,755.96 86.9280039,755.867996 87.112,755.684 C87.3120039,755.452004 87.448,754.832 87.52,753.824 L86.944,753.644 C86.896,754.492004 86.8039961,755 86.668,755.168 C86.572,755.303996 86.4000039,755.372 86.152,755.372 L85.324,755.372 C85.0039961,755.372 84.844,755.219996 84.844,754.916 L84.844,752.3 L84.22,752.3 L84.22,755.036 C84.22,755.651996 84.5239961,755.96 85.132,755.96 L86.26,755.96 Z M91.756,756.188 L91.756,755.636 L97.372,755.636 L97.372,756.188 L97.984,756.188 L97.984,750.644 L91.948,750.644 C92.2039961,750.347996 92.4719922,750.011996 92.7519883,749.636 L99.2439883,749.636 L99.2439883,749.048 L93.1479883,749.048 C93.3799844,748.664 93.5639805,748.34 93.6999766,748.076 L98.5599766,748.076 L98.5599766,747.5 L93.9639766,747.5 C94.1319766,747.107996 94.2719805,746.735996 94.3839766,746.384 C95.9199766,746.264 97.2439727,746.080004 98.3559766,745.832 L98.0439766,745.292 C95.8439805,745.756004 93.0439844,745.992008 89.6439883,746.000012 L89.8239883,746.552012 C91.1119844,746.552012 92.4279883,746.512016 93.7719883,746.432012 C93.6359922,746.792012 93.4879961,747.148016 93.328,747.500012 L89.488,747.5 L89.488,748.076 L93.028,748.076 C92.836,748.396004 92.632,748.720004 92.416,749.048 L88.852,749.048 L88.852,749.636 L91.972,749.636 C91.0999961,750.716 89.956,751.739996 88.54,752.708 L88.888,753.272 C89.6880039,752.728004 90.436,752.132 91.132,751.484 L91.132,756.188 L91.756,756.188 Z M97.372,752.156012 L91.756,752.156012 L91.756,751.196012 L97.372,751.196012 L97.372,752.156012 Z M97.372,753.584012 L91.756,753.584012 L91.756,752.672012 L97.372,752.672012 L97.372,753.584012 Z M97.372,755.084012 L91.756,755.084012 L91.756,754.100012 L97.372,754.100012 L97.372,755.084012 Z M101.02,756.164 C101.86,755.036 102.304,753.544004 102.352,751.688 L102.352,749.804 L111.04,749.804 L111.04,749.168 L108.004,749.168 C108.292,748.544 108.511996,747.868004 108.664,747.14 L110.788,747.14 L110.788,746.516 L106.528,746.516 C106.344004,745.955996 106.147996,745.472 105.94,745.064 L105.268,745.172 C105.492004,745.58 105.696004,746.027996 105.88,746.516 L101.368,746.516 L101.368,747.14 L103.612,747.14 L104.164,749.168 L101.692,749.168 L101.692,751.688 C101.659996,753.400004 101.275996,754.744004 100.54,755.72 L101.02,756.164 Z M107.380012,749.168 L104.824012,749.168 L104.260012,747.14 L108.028012,747.14 C107.908012,747.844004 107.692012,748.52 107.380012,749.168 Z M121.228,749.528 L121.228,745.796 L114.748,745.796 L114.748,749.528 L121.228,749.528 Z M120.568,748.904 L115.408,748.904 L115.408,746.42 L120.568,746.42 L120.568,748.904 Z M113.824,755.984 L113.824,755.348 L116.596,755.348 L116.596,755.984 L117.232,755.984 L117.232,750.944 L113.188,750.944 L113.188,755.984 L113.824,755.984 Z M119.272,755.984 L119.272,755.348 L122.164,755.348 L122.164,755.984 L122.812,755.984 L122.812,750.944 L118.636,750.944 L118.636,755.984 L119.272,755.984 Z M116.596,754.736 L113.824,754.736 L113.824,751.556 L116.596,751.556 L116.596,754.736 Z M122.164,754.736 L119.272,754.736 L119.272,751.556 L122.164,751.556 L122.164,754.736 Z M135.292,746.828 L135.292,746.24 L130.396,746.24 C130.204,745.799996 130.008004,745.424 129.808,745.112 L129.112,745.232 C129.328,745.528004 129.532,745.864004 129.724,746.24 L124.708,746.24 L124.708,746.828 L135.292,746.828 Z M133.168,749.96 L133.168,747.752 L126.832,747.752 L126.832,749.96 L133.168,749.96 Z M132.532,749.408 L127.468,749.408 L127.468,748.292 L132.532,748.292 L132.532,749.408 Z M125.776,752.804 L125.776,751.436 L134.212,751.436 L134.212,752.804 L134.86,752.804 L134.86,750.86 L125.128,750.86 L125.128,752.804 L125.776,752.804 Z M125.128,756.211988 C127.272004,755.827988 128.372008,754.863992 128.428012,753.319988 L128.428012,752.995988 L131.536012,752.995988 L131.536012,755.071988 C131.536012,755.727992 131.868016,756.055988 132.532012,756.055988 L133.900012,756.055988 C134.404012,756.055988 134.740012,755.927984 134.908012,755.671988 C135.076012,755.415992 135.200008,754.867988 135.280012,754.027988 L134.680012,753.835988 C134.600008,754.739984 134.480008,755.24798 134.320012,755.359977 C134.192008,755.447973 134.020012,755.491977 133.804012,755.491977 L132.700012,755.491977 C132.348016,755.491977 132.172012,755.311977 132.172012,754.951977 L132.172012,752.419977 L127.78,752.419977 L127.78,753.236 C127.78,754.523996 126.772,755.331992 124.756,755.659988 L125.128,756.211988 Z M145.948,752.492 L145.948,748.808 L142.12,748.808 L142.12,747.08 L146.848,747.08 L146.848,746.468 L142.12,746.468 L142.12,745.208 L141.484,745.208 L141.484,748.808 L138.208,748.808 L138.208,752.492 L145.948,752.492 Z M145.312,751.88 L138.856,751.88 L138.856,749.42 L145.312,749.42 L145.312,751.88 Z M137.128,756.115988 C137.728,755.355992 138.259996,754.444004 138.724,753.38 L138.172,753.104 C137.748004,754.104 137.224,754.983992 136.6,755.743988 L137.128,756.115988 Z M146.859988,756.163965 L147.387988,755.791965 C146.971984,754.999965 146.38798,754.10798 145.635977,753.115977 L145.107977,753.451977 C145.85998,754.475973 146.443984,755.379969 146.859988,756.163965 Z M143.427988,756.187977 L144.075988,756.031977 C143.803984,755.087973 143.484004,754.187973 143.116,753.331977 L142.516,753.463977 C142.867996,754.223973 143.171992,755.131977 143.427988,756.187977 Z M140.596,756.211977 L141.256,756.055977 C141.079996,755.191977 140.86,754.319984 140.596,753.439988 L139.984,753.571988 C140.239996,754.331984 140.443996,755.21198 140.596,756.211977 Z" id="点击视频观看产品亮点"></path>
        </g>
    </g>
</svg>