<?xml version="1.0" encoding="utf-8"?>
<!-- Generator: Adobe Illustrator 24.1.2, SVG Export Plug-In . SVG Version: 6.00 Build 0)  -->
<svg version="1.1" id="图层_1" xmlns="http://www.w3.org/2000/svg" xmlns:xlink="http://www.w3.org/1999/xlink" x="0px" y="0px"
	 viewBox="0 0 41 41" style="enable-background:new 0 0 41 41;" xml:space="preserve">
<style type="text/css">
	.st0{opacity:0.5;}
	.st1{fill:#FFFFFF;}
	.st2{fill:none;stroke:#FFFFFF;stroke-linejoin:round;stroke-miterlimit:10;}
</style>
<g>
	<g class="st0">
		<path class="st1" d="M20.5,1.5c10.48,0,19,8.52,19,19s-8.52,19-19,19s-19-8.52-19-19S10.02,1.5,20.5,1.5 M20.5,0.5
			c-11.05,0-20,8.95-20,20s8.95,20,20,20s20-8.95,20-20S31.55,0.5,20.5,0.5L20.5,0.5z"/>
	</g>
	<g>
		<g>
			<g>
				<g>
					<circle class="st1" cx="13.4" cy="11.09" r="1.78"/>
					<g>
						<path class="st1" d="M13.97,23.52v8.17h1.91v-9.23h1.42v-5.68c0-1.37-1.11-2.49-2.49-2.49h-2.84c-1.37,0-2.49,1.11-2.49,2.49
							v5.68h1.42v9.23h1.91v-8.17H13.97z"/>
					</g>
				</g>
				<polyline class="st2" points="16.24,11.09 31.51,11.09 31.51,23.87 				"/>
				<polyline class="st2" points="16.95,23.87 31.51,23.87 31.51,26.48 16.95,26.48 				"/>
			</g>
		</g>
		<polygon class="st1" points="28.07,17.48 20.39,13.05 20.39,21.91 		"/>
	</g>
</g>
</svg>
