<?xml version="1.0" encoding="utf-8"?>
<!-- Generator: Adobe Illustrator 24.1.2, SVG Export Plug-In . SVG Version: 6.00 Build 0)  -->
<svg version="1.1" id="图层_1" xmlns="http://www.w3.org/2000/svg" xmlns:xlink="http://www.w3.org/1999/xlink" x="0px" y="0px"
	 viewBox="0 0 164 11" style="enable-background:new 0 0 164 11;" xml:space="preserve">
<style type="text/css">
	.st0{fill:#FFFFFF;}
</style>
<g>
	<path class="st0" d="M2.31,8.24c-0.45,1.04-0.97,1.94-1.57,2.7l-0.52-0.37c0.6-0.73,1.13-1.6,1.55-2.61L2.31,8.24z M5.66,0.18v1.24
		h4.67v0.6H5.66v1.71h3.78v3.63H1.8V3.73h3.23V0.18H5.66z M8.81,4.34H2.44v2.43h6.37V4.34z M4.81,10.88l-0.65,0.15
		C4,10.04,3.8,9.18,3.55,8.43l0.6-0.13C4.39,9.1,4.62,9.96,4.81,10.88z M7.59,10.86l-0.64,0.15C6.7,10,6.4,9.1,6.05,8.33L6.64,8.2
		C7,9.01,7.32,9.9,7.59,10.86z M10.86,10.62l-0.52,0.37C9.91,10.19,9.33,9.3,8.61,8.31l0.52-0.33C9.89,8.99,10.45,9.87,10.86,10.62z
		"/>
	<path class="st0" d="M16.94,2.03V0.28h0.66v1.75h3.9v0.6h-3.9v2.18h4.87v0.62H17.6v4.42h3.01V6.6h0.6v4.42h-0.6v-0.58h-6.67v0.58
		h-0.6V6.6h0.6v3.24h3V5.43h-4.85V4.81h4.85V2.63h-3.95v-0.6H16.94z"/>
	<path class="st0" d="M33.01,10.98h-0.63V9.96h-6.76V11h-0.63V2.15h2.77c0.3-0.63,0.51-1.29,0.64-1.99l0.69,0.09
		c-0.14,0.69-0.34,1.31-0.63,1.89h4.55V10.98z M32.38,5.64V2.75h-6.76v2.89H32.38z M32.38,9.35V6.26h-6.76v3.09H32.38z"/>
	<path class="st0" d="M35.8,4.28l-0.43-0.52c1.59-0.97,2.85-2.18,3.79-3.64l0.65,0.15c-0.24,0.38-0.49,0.75-0.76,1.09h4.4v0.5
		c-0.5,0.7-1.01,1.28-1.52,1.75h2.98V7.2h-7.38v2.42c0,0.37,0.2,0.56,0.6,0.57h5.9c0.43-0.01,0.72-0.15,0.89-0.43
		c0.14-0.24,0.25-0.77,0.32-1.6l0.63,0.19c-0.07,0.78-0.19,1.35-0.34,1.69c-0.24,0.5-0.67,0.76-1.33,0.77h-6.28
		c-0.7,0-1.04-0.33-1.04-0.99v-6.2h4.18c0.54-0.47,1.07-1.03,1.55-1.66h-4.06C37.79,2.83,36.87,3.61,35.8,4.28z M37.55,4.23v2.36
		h3.08V4.23H37.55z M44.29,6.59V4.23h-3.03v2.36H44.29z"/>
	<path class="st0" d="M57.21,11h-0.65v-0.56h-8.22V11h-0.65V0.77h9.52V11z M56.56,9.87v-8.5h-8.22v8.5H56.56z M52.82,6.02
		c-0.11,0.92-0.41,1.66-0.94,2.21c-0.46,0.5-1.27,0.88-2.43,1.16l-0.24-0.56c1.01-0.24,1.74-0.57,2.19-1.01
		c0.44-0.45,0.71-1.07,0.82-1.87L52.82,6.02z M55.01,7.71h-0.63v-2.3h-3.91v2.3h-0.62V4.89h5.15V7.71z M54.55,2.17v1.99h-4.18V2.17
		H54.55z M53.95,2.63h-2.97V3.7h2.97V2.63z M55.71,8.91l-0.34,0.53c-0.89-0.59-1.8-1.05-2.74-1.39l0.3-0.45
		C53.95,7.96,54.87,8.39,55.71,8.91z"/>
	<path class="st0" d="M60.95,8.24c-0.45,1.04-0.97,1.94-1.57,2.7l-0.52-0.37c0.6-0.73,1.13-1.6,1.55-2.61L60.95,8.24z M64.3,0.18
		v1.24h4.66v0.6H64.3v1.71h3.78v3.63h-7.64V3.73h3.23V0.18H64.3z M67.45,4.34h-6.37v2.43h6.37V4.34z M63.45,10.88l-0.65,0.15
		c-0.15-0.99-0.35-1.86-0.6-2.61l0.6-0.13C63.03,9.1,63.26,9.96,63.45,10.88z M66.23,10.86l-0.64,0.15
		c-0.25-1.02-0.54-1.92-0.9-2.69l0.59-0.13C65.64,9.01,65.96,9.9,66.23,10.86z M69.5,10.62l-0.52,0.37
		c-0.43-0.81-1.01-1.69-1.73-2.68l0.52-0.33C68.53,8.99,69.1,9.87,69.5,10.62z"/>
	<path class="st0" d="M73.15,5.52c0.33-1.14,0.54-2.37,0.63-3.69H70.8V1.21h3.59V1.7c-0.07,1.65-0.33,3.14-0.79,4.48
		c0.52,0.77,0.99,1.54,1.43,2.32l-0.46,0.45c-0.37-0.67-0.78-1.36-1.23-2.06c-0.57,1.4-1.37,2.62-2.4,3.64l-0.43-0.49
		c1.05-1.05,1.86-2.31,2.4-3.78c-0.64-0.95-1.37-1.91-2.18-2.89l0.44-0.41C71.87,3.8,72.54,4.67,73.15,5.52z M78.16,2.25v2.36
		c-0.02,1.73-0.34,3.1-0.96,4.14c-0.59,0.97-1.57,1.72-2.94,2.26l-0.37-0.54c1.34-0.53,2.28-1.26,2.85-2.18
		c0.51-0.95,0.77-2.17,0.79-3.68V2.25H78.16z M80.27,7.11h-0.62V1.33h-3.58v5.78h-0.62V0.71h4.81V7.11z M79,10.79
		c-0.6,0-0.9-0.31-0.9-0.91v-2.7h0.62v2.58c0,0.3,0.15,0.45,0.47,0.45h0.82c0.25,0,0.41-0.07,0.51-0.2c0.14-0.18,0.23-0.67,0.27-1.5
		l0.57,0.18c-0.07,0.98-0.2,1.6-0.4,1.84c-0.18,0.18-0.46,0.27-0.84,0.27H79z"/>
	<path class="st0" d="M86.98,2.44c0.17-0.35,0.31-0.7,0.44-1.05c-1.2,0.07-2.5,0.12-3.9,0.12l-0.18-0.54
		c3.36-0.01,6.13-0.25,8.29-0.7l0.31,0.53c-1.12,0.25-2.43,0.43-3.92,0.54c-0.12,0.38-0.26,0.75-0.41,1.1h4.53v0.57h-4.8
		c-0.17,0.33-0.36,0.65-0.54,0.96h6.02v0.58h-6.41c-0.25,0.33-0.51,0.66-0.79,0.99h5.96v5.47h-0.6v-0.54h-5.54v0.54h-0.62V6.37
		c-0.66,0.62-1.4,1.21-2.21,1.76l-0.34-0.56c1.37-0.94,2.51-1.94,3.39-3.03h-3.08V3.97h3.52c0.21-0.32,0.41-0.64,0.6-0.96h-3.49
		V2.44H86.98z M90.97,6.09h-5.54v0.95h5.54V6.09z M85.43,8.45h5.54v-0.9h-5.54V8.45z M85.43,9.93h5.54V8.95h-5.54V9.93z"/>
	<path class="st0" d="M99.89,1.47h4.2v0.62H102c-0.14,0.69-0.36,1.36-0.65,2h3v0.63h-8.57v1.86c-0.05,1.84-0.49,3.3-1.31,4.42
		l-0.47-0.44c0.72-0.96,1.1-2.29,1.14-3.98V4.09h2.44l-0.54-2H94.8V1.47h4.45c-0.19-0.5-0.39-0.94-0.6-1.33l0.66-0.11
		C99.52,0.45,99.71,0.93,99.89,1.47z M100.73,4.09c0.31-0.64,0.52-1.3,0.64-2h-3.72l0.56,2H100.73z"/>
	<path class="st0" d="M110.34,10.81h-0.63v-0.63h-2.74v0.63h-0.63V5.84h3.99V10.81z M109.71,9.58V6.44h-2.74v3.14H109.71z
		 M114.28,0.76v3.68h-6.39V0.76H114.28z M113.63,1.38h-5.09v2.45h5.09V1.38z M115.84,10.81h-0.64v-0.63h-2.85v0.63h-0.63V5.84h4.12
		V10.81z M115.21,9.58V6.44h-2.85v3.14H115.21z"/>
	<path class="st0" d="M119.98,0.42c-0.59,1.66-1.17,2.95-1.76,3.87c0.54-0.07,1.09-0.18,1.66-0.31c0.2-0.45,0.41-0.91,0.64-1.4
		l0.57,0.21c-1.02,2.16-1.85,3.65-2.49,4.49c0.85-0.17,1.69-0.38,2.52-0.66V7.2c-1.11,0.37-2.2,0.63-3.27,0.77l-0.16-0.57
		c0.12-0.05,0.21-0.11,0.28-0.18c0.45-0.53,0.99-1.42,1.62-2.66c-0.67,0.14-1.33,0.26-1.97,0.36l-0.15-0.57
		c0.09-0.05,0.18-0.12,0.25-0.23c0.64-1.12,1.2-2.44,1.67-3.94L119.98,0.42z M121.13,9.36c-1.04,0.45-2.24,0.82-3.56,1.1l-0.09-0.62
		c1.4-0.27,2.62-0.64,3.66-1.1V9.36z M122.29,10.11v0.82h-0.6V1.2h6.07v9.73h-0.6v-0.82H122.29z M122.29,1.79v3.5h2.14v-3.5H122.29z
		 M122.29,5.9v3.62h2.14V5.9H122.29z M127.16,5.3v-3.5h-2.13v3.5H127.16z M127.16,9.52V5.9h-2.13v3.62H127.16z"/>
	<path class="st0" d="M132.27,1.42V0.19h0.65v1.23h3.27V0.19h0.65v1.23h2.83v0.64h-2.83v1.21h-0.65V2.06h-3.27v1.2h-0.65v-1.2h-2.83
		V1.42H132.27z M129.96,4.61V3.98h8.7c-0.05,1.87-0.08,2.97-0.12,3.33c-0.05,0.67-0.17,1.14-0.35,1.37
		c-0.21,0.24-0.58,0.37-1.13,0.37c-0.33,0-0.76,0.01-1.26,0.01l-0.16-0.63c0.41,0,0.84,0.01,1.27,0.01c0.34,0,0.59-0.09,0.76-0.27
		c0.17-0.18,0.27-0.62,0.31-1.3c0.01-0.33,0.02-1.09,0.04-2.26h-3.98v6.36h-0.63V4.61H129.96z"/>
	<path class="st0" d="M148.41,7.24v2.63c0,0.31,0.17,0.46,0.52,0.46H150c0.2,0,0.35-0.05,0.46-0.14c0.14-0.11,0.26-0.6,0.33-1.5
		l0.59,0.19c-0.08,0.83-0.2,1.37-0.34,1.62c-0.17,0.26-0.47,0.39-0.95,0.39h-1.33c-0.66,0-0.98-0.31-0.98-0.9V7.81h-2.97v0.41
		c-0.05,1.5-1.17,2.44-3.35,2.79l-0.38-0.54c2.06-0.31,3.1-1.09,3.1-2.33v-0.9H148.41z M146.07,1.2c-0.2-0.36-0.41-0.67-0.65-0.97
		l0.69-0.12c0.21,0.32,0.43,0.69,0.62,1.09h4.59v0.57h-10.06V1.2H146.07z M150.98,7.71h-0.64V6.3h-8.13v1.44h-0.64V5.73h9.41V7.71z
		 M149.48,2.69v2.14h-6.39V2.69H149.48z M148.84,3.22h-5.11V4.3h5.11V3.22z"/>
	<path class="st0" d="M154.78,8.24c-0.45,1.04-0.97,1.94-1.58,2.7l-0.52-0.37c0.6-0.73,1.13-1.6,1.55-2.61L154.78,8.24z
		 M158.13,0.18v1.24h4.67v0.6h-4.67v1.71h3.78v3.63h-7.64V3.73h3.23V0.18H158.13z M161.28,4.34h-6.37v2.43h6.37V4.34z M157.28,10.88
		l-0.65,0.15c-0.15-0.99-0.36-1.86-0.6-2.61l0.6-0.13C156.86,9.1,157.09,9.96,157.28,10.88z M160.06,10.86l-0.64,0.15
		c-0.25-1.02-0.54-1.92-0.9-2.69l0.59-0.13C159.47,9.01,159.79,9.9,160.06,10.86z M163.33,10.62l-0.52,0.37
		c-0.43-0.81-1.01-1.69-1.73-2.68l0.52-0.33C162.36,8.99,162.92,9.87,163.33,10.62z"/>
</g>
</svg>
